<svg width="25" height="25" viewBox="0 0 25 25" fill="none" xmlns="http://www.w3.org/2000/svg">
<path d="M12.5 0C5.59694 0 0 5.59694 0 12.5C0 19.4031 5.59694 25 12.5 25C19.4031 25 25 19.4031 25 12.5C25 5.59694 19.4031 0 12.5 0ZM12.3571 5.37245C14.4566 5.37245 16.1684 7.05867 16.1684 9.12755C16.1684 11.1964 14.4592 12.8827 12.3571 12.8827C10.2577 12.8827 8.54592 11.1964 8.54592 9.12755C8.54847 7.05867 10.2577 5.37245 12.3571 5.37245ZM18.7372 18.9541C18.7372 20.3189 16.5077 20.3189 13.926 20.3189H11.0714C8.38265 20.3189 6.2602 20.3189 6.2602 18.9541V18.6735C6.2602 16.0612 8.41837 13.9362 11.0714 13.9362H13.9286C16.5816 13.9362 18.7398 16.0612 18.7398 18.6735L18.7372 18.9541Z" fill="black"/>
</svg>
