<svg width="18" height="18" viewBox="0 0 18 18" fill="none" xmlns="http://www.w3.org/2000/svg">
<path d="M1.64431 0.262815C0.952566 0.406414 0.351906 1.09481 0.222666 1.87621C0.165606 2.23101 0.165606 15.7626 0.222666 16.1174C0.355686 16.9198 0.956166 17.5872 1.67851 17.735C2.00161 17.8026 11.7094 17.7984 11.9565 17.735C12.1237 17.6886 12.2872 17.5154 14.9326 14.5758C17.5781 11.6364 17.734 11.4548 17.7759 11.269C17.833 10.9944 17.8367 2.23521 17.7759 1.87621C17.6429 1.07381 17.0422 0.406416 16.3201 0.258615C16.0274 0.199415 1.92565 0.203615 1.64431 0.262815ZM15.9475 2.29001C16.0121 2.36181 16.0121 10.2256 15.9475 10.2974C15.9133 10.3354 15.5066 10.348 14.3586 10.348C12.6747 10.348 12.4733 10.3692 12.1046 10.5888C11.8499 10.7408 11.4813 11.1504 11.3445 11.4334C11.1469 11.843 11.1278 12.0668 11.1278 13.942C11.1278 15.2132 11.1164 15.6652 11.0822 15.7032C11.0176 15.775 2.11573 15.775 2.05111 15.7032C1.98649 15.6314 1.98649 2.36161 2.05111 2.28981C2.11573 2.21821 15.8828 2.21821 15.9475 2.29001Z" fill="black"/>
<path d="M8.63063 2.97841C8.02619 3.16001 7.62335 3.65001 7.50941 4.35101C7.39547 5.02261 7.74881 5.78701 8.31905 6.09521C9.25416 6.60621 10.2994 6.01081 10.4895 4.85781C10.5732 4.37221 10.402 3.79361 10.0714 3.42601C9.8586 3.18941 9.66456 3.06701 9.35298 2.97841C9.08676 2.90241 8.89289 2.90241 8.63063 2.97841Z" fill="black"/>
<path d="M3.5638 7.73801C3.38128 7.84361 3.22162 8.11381 3.22162 8.32081C3.22162 8.52781 3.38128 8.79801 3.5638 8.89941L3.73102 8.99661H8.99926H14.2675L14.4347 8.89941C14.6172 8.79801 14.7767 8.52781 14.7767 8.32081C14.7767 8.11381 14.6171 7.84361 14.4347 7.73801L14.2675 7.64501H8.99926H3.73102L3.5638 7.73801Z" fill="black"/>
<path d="M3.5638 10.441C3.38128 10.5466 3.22162 10.8168 3.22162 11.0238C3.22162 11.235 3.38128 11.501 3.5638 11.6066L3.73102 11.6996L6.84412 11.6912L9.95344 11.6786L10.0485 11.3702C10.1549 11.0112 10.2537 10.7832 10.4133 10.5256L10.5237 10.3482H7.12924H3.73102L3.5638 10.441Z" fill="black"/>
<path d="M3.5638 13.144C3.38128 13.2496 3.22162 13.5198 3.22162 13.7268C3.22162 13.9338 3.38128 14.204 3.5638 14.3054L3.73102 14.4026H6.82126H9.9115V13.7268V13.051H6.82126H3.73102L3.5638 13.144Z" fill="black"/>
</svg>
