<svg width="18" height="15" viewBox="0 0 18 15" fill="none" xmlns="http://www.w3.org/2000/svg">
<path d="M4 0H17C17.5523 0 18 0.447715 18 1C18 1.55228 17.5523 2 17 2H4V0Z" fill="black"/>
<path d="M4 6H17C17.5523 6 18 6.44772 18 7C18 7.55228 17.5523 8 17 8H4V6Z" fill="black"/>
<path d="M4 11H17C17.5523 11 18 11.4477 18 12C18 12.5523 17.5523 13 17 13H4V11Z" fill="black"/>
<path d="M4 3H14.5C14.7761 3 15 3.22386 15 3.5C15 3.77614 14.7761 4 14.5 4H4V3Z" fill="black"/>
<path d="M4 9H14.5C14.7761 9 15 9.22386 15 9.5C15 9.77614 14.7761 10 14.5 10H4V9Z" fill="black"/>
<path d="M4 14H14.5C14.7761 14 15 14.2239 15 14.5C15 14.7761 14.7761 15 14.5 15H4V14Z" fill="black"/>
<circle cx="1.5" cy="1.5" r="1.5" fill="black"/>
<circle cx="1.5" cy="7.5" r="1.5" fill="black"/>
<circle cx="1.5" cy="12.5" r="1.5" fill="black"/>
</svg>
