<svg width="85" height="64" viewBox="0 0 85 64" fill="none" xmlns="http://www.w3.org/2000/svg">
<rect x="10.8977" width="13.125" height="20.0455" fill="black"/>
<rect x="44.3068" width="15.5114" height="20.0455" fill="black"/>
<rect x="62.2045" width="13.125" height="25.7727" fill="black"/>
<rect x="26.4091" width="15.5114" height="14.3182" fill="black"/>
<path d="M12.0909 2.86365H22.8295V7.1591H12.0909V2.86365Z" fill="white"/>
<path d="M45.5 2.86365H58.625V7.1591H45.5V2.86365Z" fill="white"/>
<path d="M63.3977 2.86365H74.1363V7.1591H63.3977V2.86365Z" fill="white"/>
<path d="M27.6023 2.86365H40.7273V7.1591H27.6023V2.86365Z" fill="white"/>
<path d="M27.6023 8.59091H40.7273V12.8864H27.6023V8.59091Z" fill="white"/>
<rect x="12.0909" y="8.59091" width="10.7386" height="4.29545" fill="white"/>
<rect x="12.0909" y="14.3182" width="10.7386" height="4.29545" fill="white"/>
<rect x="45.5" y="8.59091" width="13.125" height="4.29545" fill="white"/>
<rect x="63.3977" y="8.59091" width="10.7386" height="4.29545" fill="white"/>
<rect x="45.5" y="14.3182" width="13.125" height="4.29545" fill="white"/>
<rect x="63.3977" y="14.3182" width="10.7386" height="4.29545" fill="white"/>
<rect x="63.3977" y="20.0454" width="10.7386" height="4.29545" fill="white"/>
<path d="M9.98 33.4V35.56H6.42V46H3.68V35.56H0.2V33.4H9.98ZM11.5763 46V36.46H14.2363V46H11.5763ZM12.9163 34.42C12.4629 34.42 12.1096 34.2933 11.8563 34.04C11.6029 33.7733 11.4762 33.4467 11.4762 33.06C11.4762 32.6733 11.6029 32.3533 11.8563 32.1C12.1096 31.8333 12.4629 31.7 12.9163 31.7C13.3563 31.7 13.7029 31.8333 13.9563 32.1C14.2229 32.3533 14.3563 32.6733 14.3563 33.06C14.3563 33.4467 14.2296 33.7733 13.9763 34.04C13.7229 34.2933 13.3696 34.42 12.9163 34.42ZM21.3836 46.22C21.0369 46.22 20.6903 46.1733 20.3436 46.08C20.0103 46 19.7303 45.8933 19.5036 45.76V50.6H16.8636V36.42H18.8836L19.1636 37.48C19.5503 37.1067 19.9903 36.8133 20.4836 36.6C20.9769 36.3733 21.5303 36.26 22.1436 36.26C23.3969 36.26 24.3836 36.6867 25.1036 37.54C25.8369 38.38 26.2036 39.5467 26.2036 41.04C26.2036 41.88 26.0769 42.6267 25.8236 43.28C25.5703 43.92 25.2236 44.46 24.7836 44.9C24.3436 45.34 23.8303 45.6733 23.2436 45.9C22.6569 46.1133 22.0369 46.22 21.3836 46.22ZM21.4236 38.26C20.9836 38.26 20.5969 38.3667 20.2636 38.58C19.9303 38.78 19.6769 38.9867 19.5036 39.2V43.76C19.9169 44.0933 20.4303 44.26 21.0436 44.26C21.3369 44.26 21.6236 44.2067 21.9036 44.1C22.1969 43.98 22.4569 43.8 22.6836 43.56C22.9236 43.3067 23.1103 42.98 23.2436 42.58C23.3903 42.18 23.4636 41.6933 23.4636 41.12C23.4636 40.7067 23.4169 40.3267 23.3236 39.98C23.2436 39.6333 23.1169 39.3333 22.9436 39.08C22.7703 38.8267 22.5569 38.6267 22.3036 38.48C22.0503 38.3333 21.7569 38.26 21.4236 38.26ZM28.235 37.3C28.8083 36.9667 29.415 36.7133 30.055 36.54C30.695 36.3533 31.375 36.26 32.095 36.26C32.6683 36.26 33.1883 36.3267 33.655 36.46C34.135 36.5933 34.5417 36.8067 34.875 37.1C35.2217 37.38 35.4817 37.7467 35.655 38.2C35.8417 38.64 35.935 39.1733 35.935 39.8V46H33.875L33.635 45.02H33.555C33.2483 45.3933 32.855 45.6867 32.375 45.9C31.9083 46.1133 31.3617 46.22 30.735 46.22C30.215 46.22 29.755 46.1467 29.355 46C28.955 45.84 28.615 45.6333 28.335 45.38C28.055 45.1133 27.8417 44.8 27.695 44.44C27.5617 44.08 27.495 43.6933 27.495 43.28C27.495 42.7333 27.6083 42.2667 27.835 41.88C28.075 41.48 28.4017 41.1533 28.815 40.9C29.2283 40.6467 29.7083 40.46 30.255 40.34C30.815 40.22 31.415 40.16 32.055 40.16H33.255V39.58C33.255 39.14 33.115 38.82 32.835 38.62C32.5683 38.4067 32.1883 38.3 31.695 38.3C31.3083 38.3 30.9083 38.36 30.495 38.48C30.095 38.6 29.6483 38.7933 29.155 39.06L28.235 37.3ZM33.275 41.82L32.415 41.84C31.6017 41.8667 31.035 42.0067 30.715 42.26C30.395 42.5 30.235 42.7933 30.235 43.14C30.235 43.5933 30.3683 43.9067 30.635 44.08C30.915 44.24 31.2283 44.32 31.575 44.32C31.9217 44.32 32.2483 44.22 32.555 44.02C32.875 43.82 33.115 43.5867 33.275 43.32V41.82ZM44.0875 38.38H41.5475V42.78C41.5475 43.2333 41.6475 43.5467 41.8475 43.72C42.0608 43.88 42.3408 43.96 42.6875 43.96C42.9542 43.96 43.2275 43.9333 43.5075 43.88C43.7875 43.8267 44.0142 43.7533 44.1875 43.66L44.5875 45.52C44.3608 45.6267 44.0208 45.7333 43.5675 45.84C43.1142 45.9467 42.6342 46 42.1275 46C40.9675 46 40.1408 45.7733 39.6475 45.32C39.1542 44.8533 38.9075 44.16 38.9075 43.24V38.38H37.4275V36.46H38.9075V33.52H41.5475V36.46H44.0875V38.38ZM46.0242 46V36.46H48.0842L48.3842 38.18C48.6109 37.6733 48.9709 37.2267 49.4642 36.84C49.9576 36.4533 50.5776 36.26 51.3242 36.26C51.6309 36.26 51.9042 36.2933 52.1442 36.36C52.3842 36.4267 52.5842 36.5067 52.7442 36.6L52.3042 38.7C52.1576 38.62 51.9709 38.5533 51.7442 38.5C51.5176 38.4333 51.2509 38.4 50.9442 38.4C50.2909 38.4 49.7442 38.62 49.3042 39.06C48.8776 39.4867 48.6642 40.1933 48.6642 41.18V46H46.0242ZM61.8094 41.92H55.4694V42C55.4694 42.76 55.736 43.3267 56.2694 43.7C56.8027 44.0733 57.4894 44.26 58.3294 44.26C58.8627 44.26 59.3294 44.2067 59.7294 44.1C60.1427 43.9933 60.516 43.8667 60.8494 43.72L61.3294 45.58C60.9694 45.7533 60.516 45.9 59.9694 46.02C59.4227 46.1533 58.776 46.22 58.0294 46.22C57.3094 46.22 56.6294 46.1267 55.9894 45.94C55.3627 45.74 54.8094 45.44 54.3294 45.04C53.8627 44.64 53.4894 44.1333 53.2094 43.52C52.9294 42.9067 52.7894 42.1733 52.7894 41.32C52.7894 40.56 52.9027 39.8733 53.1294 39.26C53.356 38.6333 53.676 38.1 54.0894 37.66C54.516 37.22 55.0227 36.88 55.6094 36.64C56.196 36.3867 56.8494 36.26 57.5694 36.26C58.8627 36.26 59.8894 36.6533 60.6494 37.44C61.4227 38.2267 61.8094 39.3267 61.8094 40.74V41.92ZM59.0894 40.1C59.0894 39.8467 59.056 39.6 58.9894 39.36C58.936 39.12 58.8427 38.9133 58.7094 38.74C58.576 38.5533 58.4094 38.4067 58.2094 38.3C58.0094 38.1933 57.7627 38.14 57.4694 38.14C56.936 38.14 56.496 38.32 56.1494 38.68C55.8027 39.04 55.596 39.5267 55.5294 40.14L59.0894 40.1ZM63.7605 46V31.72H66.3805V46H63.7605ZM68.9363 46V31.72H71.5563V46H68.9363ZM83.312 41.16C83.312 41.9467 83.1854 42.6533 82.932 43.28C82.6787 43.9067 82.3254 44.44 81.872 44.88C81.432 45.3067 80.912 45.64 80.312 45.88C79.712 46.1067 79.0654 46.22 78.372 46.22C77.6787 46.22 77.032 46.1133 76.432 45.9C75.8454 45.6867 75.332 45.3733 74.892 44.96C74.4654 44.5467 74.1254 44.04 73.872 43.44C73.632 42.8267 73.512 42.1333 73.512 41.36C73.512 40.5467 73.6387 39.8267 73.892 39.2C74.1454 38.56 74.492 38.0267 74.932 37.6C75.3854 37.16 75.912 36.8267 76.512 36.6C77.112 36.3733 77.7587 36.26 78.452 36.26C79.1454 36.26 79.7854 36.3667 80.372 36.58C80.972 36.7933 81.4854 37.1067 81.912 37.52C82.352 37.92 82.692 38.4267 82.932 39.04C83.1854 39.6533 83.312 40.36 83.312 41.16ZM80.572 41.26C80.572 40.7133 80.512 40.2467 80.392 39.86C80.272 39.4733 80.112 39.16 79.912 38.92C79.712 38.68 79.4787 38.5067 79.212 38.4C78.9454 38.28 78.672 38.22 78.392 38.22C78.112 38.22 77.8454 38.2733 77.592 38.38C77.3387 38.4733 77.112 38.64 76.912 38.88C76.712 39.1067 76.552 39.4133 76.432 39.8C76.312 40.1867 76.252 40.6733 76.252 41.26C76.252 41.78 76.312 42.2333 76.432 42.62C76.552 42.9933 76.712 43.3 76.912 43.54C77.1254 43.78 77.3587 43.96 77.612 44.08C77.8787 44.2 78.152 44.26 78.432 44.26C78.712 44.26 78.9787 44.2133 79.232 44.12C79.4854 44.0133 79.712 43.84 79.912 43.6C80.112 43.36 80.272 43.0533 80.392 42.68C80.512 42.2933 80.572 41.82 80.572 41.26Z" fill="white"/>
</svg>
